<svg version="1.2" xmlns="http://www.w3.org/2000/svg" viewBox="0 0 24 21" width="24" height="21">
	<title>heart-svg</title>
	<style>
		.s0 { fill: #a1a1a1 } 
	</style>
	<path id="Layer" fill-rule="evenodd" class="s0" d="m20.3 3.3q0.7 0.7 1 1.5 0.4 0.8 0.4 1.7 0 0.9-0.4 1.7-0.3 0.8-1 1.5l0.7 0.7 0.1 0.1-0.8-0.8-8.5 8.1-8.4-8.1c-0.9-0.9-1.4-2-1.4-3.2 0-1.2 0.5-2.3 1.4-3.2 0.8-0.8 2-1.3 3.3-1.3 1.3 0 2.5 0.5 3.3 1.3l1.1 1.1c0.4 0.4 1 0.4 1.4 0l-0.7-0.7 0.7 0.7 1.1-1.1-0.8-0.8 0.8 0.8q0.7-0.6 1.5-1 0.9-0.3 1.9-0.3 0.9 0 1.8 0.3 0.8 0.4 1.5 1l0.7-0.7-0.7 0.7zm-8.5 15.9l0.7 0.8c-0.4 0.3-1 0.3-1.4 0l-9.1-8.9c-1.3-1.2-2-2.9-2-4.6 0-1.7 0.7-3.4 2-4.6 1.2-1.2 2.9-1.9 4.7-1.9 1.8 0 3.5 0.7 4.7 1.9l0.4 0.4 0.4-0.4q1-0.9 2.2-1.4 1.2-0.5 2.6-0.5 1.3 0 2.5 0.5 1.2 0.5 2.2 1.4 0.9 0.9 1.4 2.1 0.6 1.2 0.6 2.5 0 1.3-0.6 2.5-0.5 1.2-1.4 2.1l-9.2 8.9c0 0-0.7-0.8-0.7-0.8zm1.8-15.9l-0.7-0.7zm3.4-2.3v1zm-6.3 1.6l-0.7 0.7zm-8 7.8l-0.7 0.7z"/>
</svg>